<?xml version="1.0" encoding="utf-8" standalone="no"?>
<!DOCTYPE svg PUBLIC "-//W3C//DTD SVG 1.1//EN"
  "http://www.w3.org/Graphics/SVG/1.1/DTD/svg11.dtd">
<!-- Created with matplotlib (http://matplotlib.org/) -->
<svg height="432pt" version="1.1" viewBox="0 0 576 432" width="576pt" xmlns="http://www.w3.org/2000/svg" xmlns:xlink="http://www.w3.org/1999/xlink">
 <defs>
  <style type="text/css">
*{stroke-linecap:butt;stroke-linejoin:round;stroke-miterlimit:100000;}
  </style>
 </defs>
 <g id="figure_1">
  <g id="patch_1">
   <path d="M 0 432 
L 576 432 
L 576 0 
L 0 0 
z
" style="fill:#ffffff;"/>
  </g>
  <g id="axes_1">
   <g id="patch_2">
    <path d="M 72 388.8 
L 518.4 388.8 
L 518.4 43.2 
L 72 43.2 
z
" style="fill:#ffffff;"/>
   </g>
   <g id="line2d_1">
    <defs>
     <path d="M 0 3 
C 0.795609 3 1.55874 2.683901 2.12132 2.12132 
C 2.683901 1.55874 3 0.795609 3 0 
C 3 -0.795609 2.683901 -1.55874 2.12132 -2.12132 
C 1.55874 -2.683901 0.795609 -3 0 -3 
C -0.795609 -3 -1.55874 -2.683901 -2.12132 -2.12132 
C -2.683901 -1.55874 -3 -0.795609 -3 0 
C -3 0.795609 -2.683901 1.55874 -2.12132 2.12132 
C -1.55874 2.683901 -0.795609 3 0 3 
z
" id="m546842d335" style="stroke:#000000;stroke-width:0.5;"/>
    </defs>
    <g clip-path="url(#p8b40e7682d)">
     <use style="fill:#0000ff;stroke:#000000;stroke-width:0.5;" x="72.0" xlink:href="#m546842d335" y="103.127961159"/>
     <use style="fill:#0000ff;stroke:#000000;stroke-width:0.5;" x="76.464" xlink:href="#m546842d335" y="116.85400486"/>
     <use style="fill:#0000ff;stroke:#000000;stroke-width:0.5;" x="80.928" xlink:href="#m546842d335" y="107.009296417"/>
     <use style="fill:#0000ff;stroke:#000000;stroke-width:0.5;" x="85.392" xlink:href="#m546842d335" y="111.560826302"/>
     <use style="fill:#0000ff;stroke:#000000;stroke-width:0.5;" x="89.856" xlink:href="#m546842d335" y="163.200573921"/>
     <use style="fill:#0000ff;stroke:#000000;stroke-width:0.5;" x="94.32" xlink:href="#m546842d335" y="125.331287384"/>
     <use style="fill:#0000ff;stroke:#000000;stroke-width:0.5;" x="98.784" xlink:href="#m546842d335" y="154.816560745"/>
     <use style="fill:#0000ff;stroke:#000000;stroke-width:0.5;" x="103.248" xlink:href="#m546842d335" y="124.739198685"/>
     <use style="fill:#0000ff;stroke:#000000;stroke-width:0.5;" x="107.712" xlink:href="#m546842d335" y="134.432916641"/>
     <use style="fill:#0000ff;stroke:#000000;stroke-width:0.5;" x="112.176" xlink:href="#m546842d335" y="130.771450996"/>
     <use style="fill:#0000ff;stroke:#000000;stroke-width:0.5;" x="116.64" xlink:href="#m546842d335" y="98.7367916107"/>
     <use style="fill:#0000ff;stroke:#000000;stroke-width:0.5;" x="121.104" xlink:href="#m546842d335" y="111.576347351"/>
     <use style="fill:#0000ff;stroke:#000000;stroke-width:0.5;" x="125.568" xlink:href="#m546842d335" y="107.69973278"/>
     <use style="fill:#0000ff;stroke:#000000;stroke-width:0.5;" x="130.032" xlink:href="#m546842d335" y="102.259068489"/>
     <use style="fill:#0000ff;stroke:#000000;stroke-width:0.5;" x="134.496" xlink:href="#m546842d335" y="157.225971222"/>
     <use style="fill:#0000ff;stroke:#000000;stroke-width:0.5;" x="138.96" xlink:href="#m546842d335" y="117.05971241"/>
     <use style="fill:#0000ff;stroke:#000000;stroke-width:0.5;" x="143.424" xlink:href="#m546842d335" y="107.854514122"/>
     <use style="fill:#0000ff;stroke:#000000;stroke-width:0.5;" x="147.888" xlink:href="#m546842d335" y="113.755087852"/>
     <use style="fill:#0000ff;stroke:#000000;stroke-width:0.5;" x="152.352" xlink:href="#m546842d335" y="97.6664113998"/>
     <use style="fill:#0000ff;stroke:#000000;stroke-width:0.5;" x="156.816" xlink:href="#m546842d335" y="149.345068932"/>
     <use style="fill:#0000ff;stroke:#000000;stroke-width:0.5;" x="161.28" xlink:href="#m546842d335" y="96.9896364212"/>
     <use style="fill:#0000ff;stroke:#000000;stroke-width:0.5;" x="165.744" xlink:href="#m546842d335" y="139.226131439"/>
     <use style="fill:#0000ff;stroke:#000000;stroke-width:0.5;" x="170.208" xlink:href="#m546842d335" y="102.927618027"/>
     <use style="fill:#0000ff;stroke:#000000;stroke-width:0.5;" x="174.672" xlink:href="#m546842d335" y="70.8139944077"/>
     <use style="fill:#0000ff;stroke:#000000;stroke-width:0.5;" x="179.136" xlink:href="#m546842d335" y="134.799628258"/>
     <use style="fill:#0000ff;stroke:#000000;stroke-width:0.5;" x="183.6" xlink:href="#m546842d335" y="130.418972969"/>
     <use style="fill:#0000ff;stroke:#000000;stroke-width:0.5;" x="188.064" xlink:href="#m546842d335" y="103.321151733"/>
     <use style="fill:#0000ff;stroke:#000000;stroke-width:0.5;" x="192.528" xlink:href="#m546842d335" y="129.869012833"/>
     <use style="fill:#0000ff;stroke:#000000;stroke-width:0.5;" x="196.992" xlink:href="#m546842d335" y="80.3522872925"/>
     <use style="fill:#0000ff;stroke:#000000;stroke-width:0.5;" x="201.456" xlink:href="#m546842d335" y="102.798085213"/>
     <use style="fill:#0000ff;stroke:#000000;stroke-width:0.5;" x="205.92" xlink:href="#m546842d335" y="113.056497574"/>
     <use style="fill:#0000ff;stroke:#000000;stroke-width:0.5;" x="210.384" xlink:href="#m546842d335" y="73.7805891037"/>
     <use style="fill:#0000ff;stroke:#000000;stroke-width:0.5;" x="214.848" xlink:href="#m546842d335" y="75.5890417099"/>
     <use style="fill:#0000ff;stroke:#000000;stroke-width:0.5;" x="219.312" xlink:href="#m546842d335" y="93.1903409958"/>
     <use style="fill:#0000ff;stroke:#000000;stroke-width:0.5;" x="223.776" xlink:href="#m546842d335" y="142.598204613"/>
     <use style="fill:#0000ff;stroke:#000000;stroke-width:0.5;" x="228.24" xlink:href="#m546842d335" y="137.299804688"/>
     <use style="fill:#0000ff;stroke:#000000;stroke-width:0.5;" x="232.704" xlink:href="#m546842d335" y="128.978948593"/>
     <use style="fill:#0000ff;stroke:#000000;stroke-width:0.5;" x="237.168" xlink:href="#m546842d335" y="114.703373909"/>
     <use style="fill:#0000ff;stroke:#000000;stroke-width:0.5;" x="241.632" xlink:href="#m546842d335" y="115.009503365"/>
     <use style="fill:#0000ff;stroke:#000000;stroke-width:0.5;" x="246.096" xlink:href="#m546842d335" y="118.728404045"/>
     <use style="fill:#0000ff;stroke:#000000;stroke-width:0.5;" x="250.56" xlink:href="#m546842d335" y="123.196606636"/>
     <use style="fill:#0000ff;stroke:#000000;stroke-width:0.5;" x="255.024" xlink:href="#m546842d335" y="123.912363052"/>
     <use style="fill:#0000ff;stroke:#000000;stroke-width:0.5;" x="259.488" xlink:href="#m546842d335" y="121.1632061"/>
     <use style="fill:#0000ff;stroke:#000000;stroke-width:0.5;" x="263.952" xlink:href="#m546842d335" y="188.220148087"/>
     <use style="fill:#0000ff;stroke:#000000;stroke-width:0.5;" x="268.416" xlink:href="#m546842d335" y="130.065565109"/>
     <use style="fill:#0000ff;stroke:#000000;stroke-width:0.5;" x="272.88" xlink:href="#m546842d335" y="140.363602638"/>
     <use style="fill:#0000ff;stroke:#000000;stroke-width:0.5;" x="277.344" xlink:href="#m546842d335" y="136.034016609"/>
     <use style="fill:#0000ff;stroke:#000000;stroke-width:0.5;" x="281.808" xlink:href="#m546842d335" y="120.488219261"/>
     <use style="fill:#0000ff;stroke:#000000;stroke-width:0.5;" x="286.272" xlink:href="#m546842d335" y="158.563213348"/>
     <use style="fill:#0000ff;stroke:#000000;stroke-width:0.5;" x="290.736" xlink:href="#m546842d335" y="128.84827137"/>
     <use style="fill:#0000ff;stroke:#000000;stroke-width:0.5;" x="295.2" xlink:href="#m546842d335" y="133.242444992"/>
     <use style="fill:#0000ff;stroke:#000000;stroke-width:0.5;" x="299.664" xlink:href="#m546842d335" y="153.261666298"/>
     <use style="fill:#0000ff;stroke:#000000;stroke-width:0.5;" x="304.128" xlink:href="#m546842d335" y="146.461086273"/>
     <use style="fill:#0000ff;stroke:#000000;stroke-width:0.5;" x="308.592" xlink:href="#m546842d335" y="148.883728981"/>
     <use style="fill:#0000ff;stroke:#000000;stroke-width:0.5;" x="313.056" xlink:href="#m546842d335" y="149.216108322"/>
     <use style="fill:#0000ff;stroke:#000000;stroke-width:0.5;" x="317.52" xlink:href="#m546842d335" y="201.080231667"/>
     <use style="fill:#0000ff;stroke:#000000;stroke-width:0.5;" x="321.984" xlink:href="#m546842d335" y="171.999793053"/>
     <use style="fill:#0000ff;stroke:#000000;stroke-width:0.5;" x="326.448" xlink:href="#m546842d335" y="223.384623528"/>
     <use style="fill:#0000ff;stroke:#000000;stroke-width:0.5;" x="330.912" xlink:href="#m546842d335" y="199.596219063"/>
     <use style="fill:#0000ff;stroke:#000000;stroke-width:0.5;" x="335.376" xlink:href="#m546842d335" y="172.983984947"/>
     <use style="fill:#0000ff;stroke:#000000;stroke-width:0.5;" x="339.84" xlink:href="#m546842d335" y="194.897918701"/>
     <use style="fill:#0000ff;stroke:#000000;stroke-width:0.5;" x="344.304" xlink:href="#m546842d335" y="194.19775486"/>
     <use style="fill:#0000ff;stroke:#000000;stroke-width:0.5;" x="348.768" xlink:href="#m546842d335" y="199.5291996"/>
     <use style="fill:#0000ff;stroke:#000000;stroke-width:0.5;" x="353.232" xlink:href="#m546842d335" y="220.797758102"/>
     <use style="fill:#0000ff;stroke:#000000;stroke-width:0.5;" x="357.696" xlink:href="#m546842d335" y="220.116763115"/>
     <use style="fill:#0000ff;stroke:#000000;stroke-width:0.5;" x="362.16" xlink:href="#m546842d335" y="182.78441906"/>
     <use style="fill:#0000ff;stroke:#000000;stroke-width:0.5;" x="366.624" xlink:href="#m546842d335" y="207.155041695"/>
     <use style="fill:#0000ff;stroke:#000000;stroke-width:0.5;" x="371.088" xlink:href="#m546842d335" y="210.708360672"/>
     <use style="fill:#0000ff;stroke:#000000;stroke-width:0.5;" x="375.552" xlink:href="#m546842d335" y="277.101044655"/>
     <use style="fill:#0000ff;stroke:#000000;stroke-width:0.5;" x="380.016" xlink:href="#m546842d335" y="224.964981079"/>
     <use style="fill:#0000ff;stroke:#000000;stroke-width:0.5;" x="384.48" xlink:href="#m546842d335" y="247.592310905"/>
     <use style="fill:#0000ff;stroke:#000000;stroke-width:0.5;" x="388.944" xlink:href="#m546842d335" y="259.719758034"/>
     <use style="fill:#0000ff;stroke:#000000;stroke-width:0.5;" x="393.408" xlink:href="#m546842d335" y="257.772331238"/>
     <use style="fill:#0000ff;stroke:#000000;stroke-width:0.5;" x="397.872" xlink:href="#m546842d335" y="268.925170898"/>
     <use style="fill:#0000ff;stroke:#000000;stroke-width:0.5;" x="402.336" xlink:href="#m546842d335" y="257.825760841"/>
     <use style="fill:#0000ff;stroke:#000000;stroke-width:0.5;" x="406.8" xlink:href="#m546842d335" y="252.30348587"/>
     <use style="fill:#0000ff;stroke:#000000;stroke-width:0.5;" x="411.264" xlink:href="#m546842d335" y="255.182533264"/>
     <use style="fill:#0000ff;stroke:#000000;stroke-width:0.5;" x="415.728" xlink:href="#m546842d335" y="276.746635437"/>
     <use style="fill:#0000ff;stroke:#000000;stroke-width:0.5;" x="420.192" xlink:href="#m546842d335" y="282.971220016"/>
     <use style="fill:#0000ff;stroke:#000000;stroke-width:0.5;" x="424.656" xlink:href="#m546842d335" y="305.145936012"/>
     <use style="fill:#0000ff;stroke:#000000;stroke-width:0.5;" x="429.12" xlink:href="#m546842d335" y="295.478110313"/>
     <use style="fill:#0000ff;stroke:#000000;stroke-width:0.5;" x="433.584" xlink:href="#m546842d335" y="237.268381119"/>
     <use style="fill:#0000ff;stroke:#000000;stroke-width:0.5;" x="438.048" xlink:href="#m546842d335" y="308.117036819"/>
     <use style="fill:#0000ff;stroke:#000000;stroke-width:0.5;" x="442.512" xlink:href="#m546842d335" y="274.262051582"/>
     <use style="fill:#0000ff;stroke:#000000;stroke-width:0.5;" x="446.976" xlink:href="#m546842d335" y="261.327581406"/>
     <use style="fill:#0000ff;stroke:#000000;stroke-width:0.5;" x="451.44" xlink:href="#m546842d335" y="277.977876663"/>
     <use style="fill:#0000ff;stroke:#000000;stroke-width:0.5;" x="455.904" xlink:href="#m546842d335" y="301.218538284"/>
     <use style="fill:#0000ff;stroke:#000000;stroke-width:0.5;" x="460.368" xlink:href="#m546842d335" y="263.106565475"/>
     <use style="fill:#0000ff;stroke:#000000;stroke-width:0.5;" x="464.832" xlink:href="#m546842d335" y="296.578388214"/>
     <use style="fill:#0000ff;stroke:#000000;stroke-width:0.5;" x="469.296" xlink:href="#m546842d335" y="283.906917572"/>
     <use style="fill:#0000ff;stroke:#000000;stroke-width:0.5;" x="473.76" xlink:href="#m546842d335" y="302.832655907"/>
     <use style="fill:#0000ff;stroke:#000000;stroke-width:0.5;" x="478.224" xlink:href="#m546842d335" y="307.898597717"/>
     <use style="fill:#0000ff;stroke:#000000;stroke-width:0.5;" x="482.688" xlink:href="#m546842d335" y="353.498511314"/>
     <use style="fill:#0000ff;stroke:#000000;stroke-width:0.5;" x="487.152" xlink:href="#m546842d335" y="286.505656242"/>
     <use style="fill:#0000ff;stroke:#000000;stroke-width:0.5;" x="491.616" xlink:href="#m546842d335" y="252.473931313"/>
     <use style="fill:#0000ff;stroke:#000000;stroke-width:0.5;" x="496.08" xlink:href="#m546842d335" y="279.063563347"/>
     <use style="fill:#0000ff;stroke:#000000;stroke-width:0.5;" x="500.544" xlink:href="#m546842d335" y="297.317461967"/>
     <use style="fill:#0000ff;stroke:#000000;stroke-width:0.5;" x="505.008" xlink:href="#m546842d335" y="312.293844223"/>
     <use style="fill:#0000ff;stroke:#000000;stroke-width:0.5;" x="509.472" xlink:href="#m546842d335" y="309.966259003"/>
     <use style="fill:#0000ff;stroke:#000000;stroke-width:0.5;" x="513.936" xlink:href="#m546842d335" y="268.873744011"/>
    </g>
   </g>
   <g id="patch_3">
    <path d="M 72 43.2 
L 518.4 43.2 
" style="fill:none;stroke:#000000;stroke-linecap:square;stroke-linejoin:miter;"/>
   </g>
   <g id="patch_4">
    <path d="M 518.4 388.8 
L 518.4 43.2 
" style="fill:none;stroke:#000000;stroke-linecap:square;stroke-linejoin:miter;"/>
   </g>
   <g id="patch_5">
    <path d="M 72 388.8 
L 518.4 388.8 
" style="fill:none;stroke:#000000;stroke-linecap:square;stroke-linejoin:miter;"/>
   </g>
   <g id="patch_6">
    <path d="M 72 388.8 
L 72 43.2 
" style="fill:none;stroke:#000000;stroke-linecap:square;stroke-linejoin:miter;"/>
   </g>
   <g id="matplotlib.axis_1">
    <g id="xtick_1">
     <g id="line2d_2">
      <defs>
       <path d="M 0 0 
L 0 -4 
" id="mb59a39c8f0" style="stroke:#000000;stroke-width:0.5;"/>
      </defs>
      <g>
       <use style="stroke:#000000;stroke-width:0.5;" x="72.0" xlink:href="#mb59a39c8f0" y="388.8"/>
      </g>
     </g>
     <g id="line2d_3">
      <defs>
       <path d="M 0 0 
L 0 4 
" id="m26e0d25f1c" style="stroke:#000000;stroke-width:0.5;"/>
      </defs>
      <g>
       <use style="stroke:#000000;stroke-width:0.5;" x="72.0" xlink:href="#m26e0d25f1c" y="43.2"/>
      </g>
     </g>
     <g id="text_1">
      <!-- 0 -->
      <defs>
       <path d="M 31.78125 66.40625 
Q 24.171875 66.40625 20.328125 58.90625 
Q 16.5 51.421875 16.5 36.375 
Q 16.5 21.390625 20.328125 13.890625 
Q 24.171875 6.390625 31.78125 6.390625 
Q 39.453125 6.390625 43.28125 13.890625 
Q 47.125 21.390625 47.125 36.375 
Q 47.125 51.421875 43.28125 58.90625 
Q 39.453125 66.40625 31.78125 66.40625 
M 31.78125 74.21875 
Q 44.046875 74.21875 50.515625 64.515625 
Q 56.984375 54.828125 56.984375 36.375 
Q 56.984375 17.96875 50.515625 8.265625 
Q 44.046875 -1.421875 31.78125 -1.421875 
Q 19.53125 -1.421875 13.0625 8.265625 
Q 6.59375 17.96875 6.59375 36.375 
Q 6.59375 54.828125 13.0625 64.515625 
Q 19.53125 74.21875 31.78125 74.21875 
" id="DejaVuSans-30"/>
      </defs>
      <g transform="translate(68.1825 401.918125)scale(0.12 -0.12)">
       <use xlink:href="#DejaVuSans-30"/>
      </g>
     </g>
    </g>
    <g id="xtick_2">
     <g id="line2d_4">
      <g>
       <use style="stroke:#000000;stroke-width:0.5;" x="161.28" xlink:href="#mb59a39c8f0" y="388.8"/>
      </g>
     </g>
     <g id="line2d_5">
      <g>
       <use style="stroke:#000000;stroke-width:0.5;" x="161.28" xlink:href="#m26e0d25f1c" y="43.2"/>
      </g>
     </g>
     <g id="text_2">
      <!-- 20 -->
      <defs>
       <path d="M 19.1875 8.296875 
L 53.609375 8.296875 
L 53.609375 0 
L 7.328125 0 
L 7.328125 8.296875 
Q 12.9375 14.109375 22.625 23.890625 
Q 32.328125 33.6875 34.8125 36.53125 
Q 39.546875 41.84375 41.421875 45.53125 
Q 43.3125 49.21875 43.3125 52.78125 
Q 43.3125 58.59375 39.234375 62.25 
Q 35.15625 65.921875 28.609375 65.921875 
Q 23.96875 65.921875 18.8125 64.3125 
Q 13.671875 62.703125 7.8125 59.421875 
L 7.8125 69.390625 
Q 13.765625 71.78125 18.9375 73 
Q 24.125 74.21875 28.421875 74.21875 
Q 39.75 74.21875 46.484375 68.546875 
Q 53.21875 62.890625 53.21875 53.421875 
Q 53.21875 48.921875 51.53125 44.890625 
Q 49.859375 40.875 45.40625 35.40625 
Q 44.1875 33.984375 37.640625 27.21875 
Q 31.109375 20.453125 19.1875 8.296875 
" id="DejaVuSans-32"/>
      </defs>
      <g transform="translate(153.645 401.918125)scale(0.12 -0.12)">
       <use xlink:href="#DejaVuSans-32"/>
       <use x="63.623046875" xlink:href="#DejaVuSans-30"/>
      </g>
     </g>
    </g>
    <g id="xtick_3">
     <g id="line2d_6">
      <g>
       <use style="stroke:#000000;stroke-width:0.5;" x="250.56" xlink:href="#mb59a39c8f0" y="388.8"/>
      </g>
     </g>
     <g id="line2d_7">
      <g>
       <use style="stroke:#000000;stroke-width:0.5;" x="250.56" xlink:href="#m26e0d25f1c" y="43.2"/>
      </g>
     </g>
     <g id="text_3">
      <!-- 40 -->
      <defs>
       <path d="M 37.796875 64.3125 
L 12.890625 25.390625 
L 37.796875 25.390625 
z
M 35.203125 72.90625 
L 47.609375 72.90625 
L 47.609375 25.390625 
L 58.015625 25.390625 
L 58.015625 17.1875 
L 47.609375 17.1875 
L 47.609375 0 
L 37.796875 0 
L 37.796875 17.1875 
L 4.890625 17.1875 
L 4.890625 26.703125 
z
" id="DejaVuSans-34"/>
      </defs>
      <g transform="translate(242.925 401.918125)scale(0.12 -0.12)">
       <use xlink:href="#DejaVuSans-34"/>
       <use x="63.623046875" xlink:href="#DejaVuSans-30"/>
      </g>
     </g>
    </g>
    <g id="xtick_4">
     <g id="line2d_8">
      <g>
       <use style="stroke:#000000;stroke-width:0.5;" x="339.84" xlink:href="#mb59a39c8f0" y="388.8"/>
      </g>
     </g>
     <g id="line2d_9">
      <g>
       <use style="stroke:#000000;stroke-width:0.5;" x="339.84" xlink:href="#m26e0d25f1c" y="43.2"/>
      </g>
     </g>
     <g id="text_4">
      <!-- 60 -->
      <defs>
       <path d="M 33.015625 40.375 
Q 26.375 40.375 22.484375 35.828125 
Q 18.609375 31.296875 18.609375 23.390625 
Q 18.609375 15.53125 22.484375 10.953125 
Q 26.375 6.390625 33.015625 6.390625 
Q 39.65625 6.390625 43.53125 10.953125 
Q 47.40625 15.53125 47.40625 23.390625 
Q 47.40625 31.296875 43.53125 35.828125 
Q 39.65625 40.375 33.015625 40.375 
M 52.59375 71.296875 
L 52.59375 62.3125 
Q 48.875 64.0625 45.09375 64.984375 
Q 41.3125 65.921875 37.59375 65.921875 
Q 27.828125 65.921875 22.671875 59.328125 
Q 17.53125 52.734375 16.796875 39.40625 
Q 19.671875 43.65625 24.015625 45.921875 
Q 28.375 48.1875 33.59375 48.1875 
Q 44.578125 48.1875 50.953125 41.515625 
Q 57.328125 34.859375 57.328125 23.390625 
Q 57.328125 12.15625 50.6875 5.359375 
Q 44.046875 -1.421875 33.015625 -1.421875 
Q 20.359375 -1.421875 13.671875 8.265625 
Q 6.984375 17.96875 6.984375 36.375 
Q 6.984375 53.65625 15.1875 63.9375 
Q 23.390625 74.21875 37.203125 74.21875 
Q 40.921875 74.21875 44.703125 73.484375 
Q 48.484375 72.75 52.59375 71.296875 
" id="DejaVuSans-36"/>
      </defs>
      <g transform="translate(332.205 401.918125)scale(0.12 -0.12)">
       <use xlink:href="#DejaVuSans-36"/>
       <use x="63.623046875" xlink:href="#DejaVuSans-30"/>
      </g>
     </g>
    </g>
    <g id="xtick_5">
     <g id="line2d_10">
      <g>
       <use style="stroke:#000000;stroke-width:0.5;" x="429.12" xlink:href="#mb59a39c8f0" y="388.8"/>
      </g>
     </g>
     <g id="line2d_11">
      <g>
       <use style="stroke:#000000;stroke-width:0.5;" x="429.12" xlink:href="#m26e0d25f1c" y="43.2"/>
      </g>
     </g>
     <g id="text_5">
      <!-- 80 -->
      <defs>
       <path d="M 31.78125 34.625 
Q 24.75 34.625 20.71875 30.859375 
Q 16.703125 27.09375 16.703125 20.515625 
Q 16.703125 13.921875 20.71875 10.15625 
Q 24.75 6.390625 31.78125 6.390625 
Q 38.8125 6.390625 42.859375 10.171875 
Q 46.921875 13.96875 46.921875 20.515625 
Q 46.921875 27.09375 42.890625 30.859375 
Q 38.875 34.625 31.78125 34.625 
M 21.921875 38.8125 
Q 15.578125 40.375 12.03125 44.71875 
Q 8.5 49.078125 8.5 55.328125 
Q 8.5 64.0625 14.71875 69.140625 
Q 20.953125 74.21875 31.78125 74.21875 
Q 42.671875 74.21875 48.875 69.140625 
Q 55.078125 64.0625 55.078125 55.328125 
Q 55.078125 49.078125 51.53125 44.71875 
Q 48 40.375 41.703125 38.8125 
Q 48.828125 37.15625 52.796875 32.3125 
Q 56.78125 27.484375 56.78125 20.515625 
Q 56.78125 9.90625 50.3125 4.234375 
Q 43.84375 -1.421875 31.78125 -1.421875 
Q 19.734375 -1.421875 13.25 4.234375 
Q 6.78125 9.90625 6.78125 20.515625 
Q 6.78125 27.484375 10.78125 32.3125 
Q 14.796875 37.15625 21.921875 38.8125 
M 18.3125 54.390625 
Q 18.3125 48.734375 21.84375 45.5625 
Q 25.390625 42.390625 31.78125 42.390625 
Q 38.140625 42.390625 41.71875 45.5625 
Q 45.3125 48.734375 45.3125 54.390625 
Q 45.3125 60.0625 41.71875 63.234375 
Q 38.140625 66.40625 31.78125 66.40625 
Q 25.390625 66.40625 21.84375 63.234375 
Q 18.3125 60.0625 18.3125 54.390625 
" id="DejaVuSans-38"/>
      </defs>
      <g transform="translate(421.485 401.918125)scale(0.12 -0.12)">
       <use xlink:href="#DejaVuSans-38"/>
       <use x="63.623046875" xlink:href="#DejaVuSans-30"/>
      </g>
     </g>
    </g>
    <g id="xtick_6">
     <g id="line2d_12">
      <g>
       <use style="stroke:#000000;stroke-width:0.5;" x="518.4" xlink:href="#mb59a39c8f0" y="388.8"/>
      </g>
     </g>
     <g id="line2d_13">
      <g>
       <use style="stroke:#000000;stroke-width:0.5;" x="518.4" xlink:href="#m26e0d25f1c" y="43.2"/>
      </g>
     </g>
     <g id="text_6">
      <!-- 100 -->
      <defs>
       <path d="M 12.40625 8.296875 
L 28.515625 8.296875 
L 28.515625 63.921875 
L 10.984375 60.40625 
L 10.984375 69.390625 
L 28.421875 72.90625 
L 38.28125 72.90625 
L 38.28125 8.296875 
L 54.390625 8.296875 
L 54.390625 0 
L 12.40625 0 
z
" id="DejaVuSans-31"/>
      </defs>
      <g transform="translate(506.9475 401.918125)scale(0.12 -0.12)">
       <use xlink:href="#DejaVuSans-31"/>
       <use x="63.623046875" xlink:href="#DejaVuSans-30"/>
       <use x="127.24609375" xlink:href="#DejaVuSans-30"/>
      </g>
     </g>
    </g>
   </g>
   <g id="matplotlib.axis_2">
    <g id="ytick_1">
     <g id="line2d_14">
      <defs>
       <path d="M 0 0 
L 4 0 
" id="m3ee0f02672" style="stroke:#000000;stroke-width:0.5;"/>
      </defs>
      <g>
       <use style="stroke:#000000;stroke-width:0.5;" x="72.0" xlink:href="#m3ee0f02672" y="388.8"/>
      </g>
     </g>
     <g id="line2d_15">
      <defs>
       <path d="M 0 0 
L -4 0 
" id="m8eeca1b8cc" style="stroke:#000000;stroke-width:0.5;"/>
      </defs>
      <g>
       <use style="stroke:#000000;stroke-width:0.5;" x="518.4" xlink:href="#m8eeca1b8cc" y="388.8"/>
      </g>
     </g>
     <g id="text_7">
      <!-- 0.018 -->
      <defs>
       <path d="M 10.6875 12.40625 
L 21 12.40625 
L 21 0 
L 10.6875 0 
z
" id="DejaVuSans-2e"/>
      </defs>
      <g transform="translate(33.64625 392.11125)scale(0.12 -0.12)">
       <use xlink:href="#DejaVuSans-30"/>
       <use x="63.623046875" xlink:href="#DejaVuSans-2e"/>
       <use x="95.41015625" xlink:href="#DejaVuSans-30"/>
       <use x="159.033203125" xlink:href="#DejaVuSans-31"/>
       <use x="222.65625" xlink:href="#DejaVuSans-38"/>
      </g>
     </g>
    </g>
    <g id="ytick_2">
     <g id="line2d_16">
      <g>
       <use style="stroke:#000000;stroke-width:0.5;" x="72.0" xlink:href="#m3ee0f02672" y="350.4"/>
      </g>
     </g>
     <g id="line2d_17">
      <g>
       <use style="stroke:#000000;stroke-width:0.5;" x="518.4" xlink:href="#m8eeca1b8cc" y="350.4"/>
      </g>
     </g>
     <g id="text_8">
      <!-- 0.019 -->
      <defs>
       <path d="M 10.984375 1.515625 
L 10.984375 10.5 
Q 14.703125 8.734375 18.5 7.8125 
Q 22.3125 6.890625 25.984375 6.890625 
Q 35.75 6.890625 40.890625 13.453125 
Q 46.046875 20.015625 46.78125 33.40625 
Q 43.953125 29.203125 39.59375 26.953125 
Q 35.25 24.703125 29.984375 24.703125 
Q 19.046875 24.703125 12.671875 31.3125 
Q 6.296875 37.9375 6.296875 49.421875 
Q 6.296875 60.640625 12.9375 67.421875 
Q 19.578125 74.21875 30.609375 74.21875 
Q 43.265625 74.21875 49.921875 64.515625 
Q 56.59375 54.828125 56.59375 36.375 
Q 56.59375 19.140625 48.40625 8.859375 
Q 40.234375 -1.421875 26.421875 -1.421875 
Q 22.703125 -1.421875 18.890625 -0.6875 
Q 15.09375 0.046875 10.984375 1.515625 
M 30.609375 32.421875 
Q 37.25 32.421875 41.125 36.953125 
Q 45.015625 41.5 45.015625 49.421875 
Q 45.015625 57.28125 41.125 61.84375 
Q 37.25 66.40625 30.609375 66.40625 
Q 23.96875 66.40625 20.09375 61.84375 
Q 16.21875 57.28125 16.21875 49.421875 
Q 16.21875 41.5 20.09375 36.953125 
Q 23.96875 32.421875 30.609375 32.421875 
" id="DejaVuSans-39"/>
      </defs>
      <g transform="translate(33.64625 353.71125)scale(0.12 -0.12)">
       <use xlink:href="#DejaVuSans-30"/>
       <use x="63.623046875" xlink:href="#DejaVuSans-2e"/>
       <use x="95.41015625" xlink:href="#DejaVuSans-30"/>
       <use x="159.033203125" xlink:href="#DejaVuSans-31"/>
       <use x="222.65625" xlink:href="#DejaVuSans-39"/>
      </g>
     </g>
    </g>
    <g id="ytick_3">
     <g id="line2d_18">
      <g>
       <use style="stroke:#000000;stroke-width:0.5;" x="72.0" xlink:href="#m3ee0f02672" y="312.0"/>
      </g>
     </g>
     <g id="line2d_19">
      <g>
       <use style="stroke:#000000;stroke-width:0.5;" x="518.4" xlink:href="#m8eeca1b8cc" y="312.0"/>
      </g>
     </g>
     <g id="text_9">
      <!-- 0.020 -->
      <g transform="translate(33.64625 315.31125)scale(0.12 -0.12)">
       <use xlink:href="#DejaVuSans-30"/>
       <use x="63.623046875" xlink:href="#DejaVuSans-2e"/>
       <use x="95.41015625" xlink:href="#DejaVuSans-30"/>
       <use x="159.033203125" xlink:href="#DejaVuSans-32"/>
       <use x="222.65625" xlink:href="#DejaVuSans-30"/>
      </g>
     </g>
    </g>
    <g id="ytick_4">
     <g id="line2d_20">
      <g>
       <use style="stroke:#000000;stroke-width:0.5;" x="72.0" xlink:href="#m3ee0f02672" y="273.6"/>
      </g>
     </g>
     <g id="line2d_21">
      <g>
       <use style="stroke:#000000;stroke-width:0.5;" x="518.4" xlink:href="#m8eeca1b8cc" y="273.6"/>
      </g>
     </g>
     <g id="text_10">
      <!-- 0.021 -->
      <g transform="translate(33.64625 276.91125)scale(0.12 -0.12)">
       <use xlink:href="#DejaVuSans-30"/>
       <use x="63.623046875" xlink:href="#DejaVuSans-2e"/>
       <use x="95.41015625" xlink:href="#DejaVuSans-30"/>
       <use x="159.033203125" xlink:href="#DejaVuSans-32"/>
       <use x="222.65625" xlink:href="#DejaVuSans-31"/>
      </g>
     </g>
    </g>
    <g id="ytick_5">
     <g id="line2d_22">
      <g>
       <use style="stroke:#000000;stroke-width:0.5;" x="72.0" xlink:href="#m3ee0f02672" y="235.2"/>
      </g>
     </g>
     <g id="line2d_23">
      <g>
       <use style="stroke:#000000;stroke-width:0.5;" x="518.4" xlink:href="#m8eeca1b8cc" y="235.2"/>
      </g>
     </g>
     <g id="text_11">
      <!-- 0.022 -->
      <g transform="translate(33.64625 238.51125)scale(0.12 -0.12)">
       <use xlink:href="#DejaVuSans-30"/>
       <use x="63.623046875" xlink:href="#DejaVuSans-2e"/>
       <use x="95.41015625" xlink:href="#DejaVuSans-30"/>
       <use x="159.033203125" xlink:href="#DejaVuSans-32"/>
       <use x="222.65625" xlink:href="#DejaVuSans-32"/>
      </g>
     </g>
    </g>
    <g id="ytick_6">
     <g id="line2d_24">
      <g>
       <use style="stroke:#000000;stroke-width:0.5;" x="72.0" xlink:href="#m3ee0f02672" y="196.8"/>
      </g>
     </g>
     <g id="line2d_25">
      <g>
       <use style="stroke:#000000;stroke-width:0.5;" x="518.4" xlink:href="#m8eeca1b8cc" y="196.8"/>
      </g>
     </g>
     <g id="text_12">
      <!-- 0.023 -->
      <defs>
       <path d="M 40.578125 39.3125 
Q 47.65625 37.796875 51.625 33 
Q 55.609375 28.21875 55.609375 21.1875 
Q 55.609375 10.40625 48.1875 4.484375 
Q 40.765625 -1.421875 27.09375 -1.421875 
Q 22.515625 -1.421875 17.65625 -0.515625 
Q 12.796875 0.390625 7.625 2.203125 
L 7.625 11.71875 
Q 11.71875 9.328125 16.59375 8.109375 
Q 21.484375 6.890625 26.8125 6.890625 
Q 36.078125 6.890625 40.9375 10.546875 
Q 45.796875 14.203125 45.796875 21.1875 
Q 45.796875 27.640625 41.28125 31.265625 
Q 36.765625 34.90625 28.71875 34.90625 
L 20.21875 34.90625 
L 20.21875 43.015625 
L 29.109375 43.015625 
Q 36.375 43.015625 40.234375 45.921875 
Q 44.09375 48.828125 44.09375 54.296875 
Q 44.09375 59.90625 40.109375 62.90625 
Q 36.140625 65.921875 28.71875 65.921875 
Q 24.65625 65.921875 20.015625 65.03125 
Q 15.375 64.15625 9.8125 62.3125 
L 9.8125 71.09375 
Q 15.4375 72.65625 20.34375 73.4375 
Q 25.25 74.21875 29.59375 74.21875 
Q 40.828125 74.21875 47.359375 69.109375 
Q 53.90625 64.015625 53.90625 55.328125 
Q 53.90625 49.265625 50.4375 45.09375 
Q 46.96875 40.921875 40.578125 39.3125 
" id="DejaVuSans-33"/>
      </defs>
      <g transform="translate(33.64625 200.11125)scale(0.12 -0.12)">
       <use xlink:href="#DejaVuSans-30"/>
       <use x="63.623046875" xlink:href="#DejaVuSans-2e"/>
       <use x="95.41015625" xlink:href="#DejaVuSans-30"/>
       <use x="159.033203125" xlink:href="#DejaVuSans-32"/>
       <use x="222.65625" xlink:href="#DejaVuSans-33"/>
      </g>
     </g>
    </g>
    <g id="ytick_7">
     <g id="line2d_26">
      <g>
       <use style="stroke:#000000;stroke-width:0.5;" x="72.0" xlink:href="#m3ee0f02672" y="158.4"/>
      </g>
     </g>
     <g id="line2d_27">
      <g>
       <use style="stroke:#000000;stroke-width:0.5;" x="518.4" xlink:href="#m8eeca1b8cc" y="158.4"/>
      </g>
     </g>
     <g id="text_13">
      <!-- 0.024 -->
      <g transform="translate(33.64625 161.71125)scale(0.12 -0.12)">
       <use xlink:href="#DejaVuSans-30"/>
       <use x="63.623046875" xlink:href="#DejaVuSans-2e"/>
       <use x="95.41015625" xlink:href="#DejaVuSans-30"/>
       <use x="159.033203125" xlink:href="#DejaVuSans-32"/>
       <use x="222.65625" xlink:href="#DejaVuSans-34"/>
      </g>
     </g>
    </g>
    <g id="ytick_8">
     <g id="line2d_28">
      <g>
       <use style="stroke:#000000;stroke-width:0.5;" x="72.0" xlink:href="#m3ee0f02672" y="120.0"/>
      </g>
     </g>
     <g id="line2d_29">
      <g>
       <use style="stroke:#000000;stroke-width:0.5;" x="518.4" xlink:href="#m8eeca1b8cc" y="120.0"/>
      </g>
     </g>
     <g id="text_14">
      <!-- 0.025 -->
      <defs>
       <path d="M 10.796875 72.90625 
L 49.515625 72.90625 
L 49.515625 64.59375 
L 19.828125 64.59375 
L 19.828125 46.734375 
Q 21.96875 47.46875 24.109375 47.828125 
Q 26.265625 48.1875 28.421875 48.1875 
Q 40.625 48.1875 47.75 41.5 
Q 54.890625 34.8125 54.890625 23.390625 
Q 54.890625 11.625 47.5625 5.09375 
Q 40.234375 -1.421875 26.90625 -1.421875 
Q 22.3125 -1.421875 17.546875 -0.640625 
Q 12.796875 0.140625 7.71875 1.703125 
L 7.71875 11.625 
Q 12.109375 9.234375 16.796875 8.0625 
Q 21.484375 6.890625 26.703125 6.890625 
Q 35.15625 6.890625 40.078125 11.328125 
Q 45.015625 15.765625 45.015625 23.390625 
Q 45.015625 31 40.078125 35.4375 
Q 35.15625 39.890625 26.703125 39.890625 
Q 22.75 39.890625 18.8125 39.015625 
Q 14.890625 38.140625 10.796875 36.28125 
z
" id="DejaVuSans-35"/>
      </defs>
      <g transform="translate(33.64625 123.31125)scale(0.12 -0.12)">
       <use xlink:href="#DejaVuSans-30"/>
       <use x="63.623046875" xlink:href="#DejaVuSans-2e"/>
       <use x="95.41015625" xlink:href="#DejaVuSans-30"/>
       <use x="159.033203125" xlink:href="#DejaVuSans-32"/>
       <use x="222.65625" xlink:href="#DejaVuSans-35"/>
      </g>
     </g>
    </g>
    <g id="ytick_9">
     <g id="line2d_30">
      <g>
       <use style="stroke:#000000;stroke-width:0.5;" x="72.0" xlink:href="#m3ee0f02672" y="81.6"/>
      </g>
     </g>
     <g id="line2d_31">
      <g>
       <use style="stroke:#000000;stroke-width:0.5;" x="518.4" xlink:href="#m8eeca1b8cc" y="81.6"/>
      </g>
     </g>
     <g id="text_15">
      <!-- 0.026 -->
      <g transform="translate(33.64625 84.91125)scale(0.12 -0.12)">
       <use xlink:href="#DejaVuSans-30"/>
       <use x="63.623046875" xlink:href="#DejaVuSans-2e"/>
       <use x="95.41015625" xlink:href="#DejaVuSans-30"/>
       <use x="159.033203125" xlink:href="#DejaVuSans-32"/>
       <use x="222.65625" xlink:href="#DejaVuSans-36"/>
      </g>
     </g>
    </g>
    <g id="ytick_10">
     <g id="line2d_32">
      <g>
       <use style="stroke:#000000;stroke-width:0.5;" x="72.0" xlink:href="#m3ee0f02672" y="43.2"/>
      </g>
     </g>
     <g id="line2d_33">
      <g>
       <use style="stroke:#000000;stroke-width:0.5;" x="518.4" xlink:href="#m8eeca1b8cc" y="43.2"/>
      </g>
     </g>
     <g id="text_16">
      <!-- 0.027 -->
      <defs>
       <path d="M 8.203125 72.90625 
L 55.078125 72.90625 
L 55.078125 68.703125 
L 28.609375 0 
L 18.3125 0 
L 43.21875 64.59375 
L 8.203125 64.59375 
z
" id="DejaVuSans-37"/>
      </defs>
      <g transform="translate(33.64625 46.51125)scale(0.12 -0.12)">
       <use xlink:href="#DejaVuSans-30"/>
       <use x="63.623046875" xlink:href="#DejaVuSans-2e"/>
       <use x="95.41015625" xlink:href="#DejaVuSans-30"/>
       <use x="159.033203125" xlink:href="#DejaVuSans-32"/>
       <use x="222.65625" xlink:href="#DejaVuSans-37"/>
      </g>
     </g>
    </g>
   </g>
   <g id="text_17">
    <!-- loss: over 26190 iterations -->
    <defs>
     <path d="M 11.71875 12.40625 
L 22.015625 12.40625 
L 22.015625 0 
L 11.71875 0 
z
M 11.71875 51.703125 
L 22.015625 51.703125 
L 22.015625 39.3125 
L 11.71875 39.3125 
z
" id="DejaVuSans-3a"/>
     <path d="M 56.203125 29.59375 
L 56.203125 25.203125 
L 14.890625 25.203125 
Q 15.484375 15.921875 20.484375 11.0625 
Q 25.484375 6.203125 34.421875 6.203125 
Q 39.59375 6.203125 44.453125 7.46875 
Q 49.3125 8.734375 54.109375 11.28125 
L 54.109375 2.78125 
Q 49.265625 0.734375 44.1875 -0.34375 
Q 39.109375 -1.421875 33.890625 -1.421875 
Q 20.796875 -1.421875 13.15625 6.1875 
Q 5.515625 13.8125 5.515625 26.8125 
Q 5.515625 40.234375 12.765625 48.109375 
Q 20.015625 56 32.328125 56 
Q 43.359375 56 49.78125 48.890625 
Q 56.203125 41.796875 56.203125 29.59375 
M 47.21875 32.234375 
Q 47.125 39.59375 43.09375 43.984375 
Q 39.0625 48.390625 32.421875 48.390625 
Q 24.90625 48.390625 20.390625 44.140625 
Q 15.875 39.890625 15.1875 32.171875 
z
" id="DejaVuSans-65"/>
     <path d="M 30.609375 48.390625 
Q 23.390625 48.390625 19.1875 42.75 
Q 14.984375 37.109375 14.984375 27.296875 
Q 14.984375 17.484375 19.15625 11.84375 
Q 23.34375 6.203125 30.609375 6.203125 
Q 37.796875 6.203125 41.984375 11.859375 
Q 46.1875 17.53125 46.1875 27.296875 
Q 46.1875 37.015625 41.984375 42.703125 
Q 37.796875 48.390625 30.609375 48.390625 
M 30.609375 56 
Q 42.328125 56 49.015625 48.375 
Q 55.71875 40.765625 55.71875 27.296875 
Q 55.71875 13.875 49.015625 6.21875 
Q 42.328125 -1.421875 30.609375 -1.421875 
Q 18.84375 -1.421875 12.171875 6.21875 
Q 5.515625 13.875 5.515625 27.296875 
Q 5.515625 40.765625 12.171875 48.375 
Q 18.84375 56 30.609375 56 
" id="DejaVuSans-6f"/>
     <path d="M 54.890625 33.015625 
L 54.890625 0 
L 45.90625 0 
L 45.90625 32.71875 
Q 45.90625 40.484375 42.875 44.328125 
Q 39.84375 48.1875 33.796875 48.1875 
Q 26.515625 48.1875 22.3125 43.546875 
Q 18.109375 38.921875 18.109375 30.90625 
L 18.109375 0 
L 9.078125 0 
L 9.078125 54.6875 
L 18.109375 54.6875 
L 18.109375 46.1875 
Q 21.34375 51.125 25.703125 53.5625 
Q 30.078125 56 35.796875 56 
Q 45.21875 56 50.046875 50.171875 
Q 54.890625 44.34375 54.890625 33.015625 
" id="DejaVuSans-6e"/>
     <path d="M 9.421875 75.984375 
L 18.40625 75.984375 
L 18.40625 0 
L 9.421875 0 
z
" id="DejaVuSans-6c"/>
     <path id="DejaVuSans-20"/>
     <path d="M 34.28125 27.484375 
Q 23.390625 27.484375 19.1875 25 
Q 14.984375 22.515625 14.984375 16.5 
Q 14.984375 11.71875 18.140625 8.90625 
Q 21.296875 6.109375 26.703125 6.109375 
Q 34.1875 6.109375 38.703125 11.40625 
Q 43.21875 16.703125 43.21875 25.484375 
L 43.21875 27.484375 
z
M 52.203125 31.203125 
L 52.203125 0 
L 43.21875 0 
L 43.21875 8.296875 
Q 40.140625 3.328125 35.546875 0.953125 
Q 30.953125 -1.421875 24.3125 -1.421875 
Q 15.921875 -1.421875 10.953125 3.296875 
Q 6 8.015625 6 15.921875 
Q 6 25.140625 12.171875 29.828125 
Q 18.359375 34.515625 30.609375 34.515625 
L 43.21875 34.515625 
L 43.21875 35.40625 
Q 43.21875 41.609375 39.140625 45 
Q 35.0625 48.390625 27.6875 48.390625 
Q 23 48.390625 18.546875 47.265625 
Q 14.109375 46.140625 10.015625 43.890625 
L 10.015625 52.203125 
Q 14.9375 54.109375 19.578125 55.046875 
Q 24.21875 56 28.609375 56 
Q 40.484375 56 46.34375 49.84375 
Q 52.203125 43.703125 52.203125 31.203125 
" id="DejaVuSans-61"/>
     <path d="M 9.421875 54.6875 
L 18.40625 54.6875 
L 18.40625 0 
L 9.421875 0 
z
M 9.421875 75.984375 
L 18.40625 75.984375 
L 18.40625 64.59375 
L 9.421875 64.59375 
z
" id="DejaVuSans-69"/>
     <path d="M 18.3125 70.21875 
L 18.3125 54.6875 
L 36.8125 54.6875 
L 36.8125 47.703125 
L 18.3125 47.703125 
L 18.3125 18.015625 
Q 18.3125 11.328125 20.140625 9.421875 
Q 21.96875 7.515625 27.59375 7.515625 
L 36.8125 7.515625 
L 36.8125 0 
L 27.59375 0 
Q 17.1875 0 13.234375 3.875 
Q 9.28125 7.765625 9.28125 18.015625 
L 9.28125 47.703125 
L 2.6875 47.703125 
L 2.6875 54.6875 
L 9.28125 54.6875 
L 9.28125 70.21875 
z
" id="DejaVuSans-74"/>
     <path d="M 2.984375 54.6875 
L 12.5 54.6875 
L 29.59375 8.796875 
L 46.6875 54.6875 
L 56.203125 54.6875 
L 35.6875 0 
L 23.484375 0 
z
" id="DejaVuSans-76"/>
     <path d="M 44.28125 53.078125 
L 44.28125 44.578125 
Q 40.484375 46.53125 36.375 47.5 
Q 32.28125 48.484375 27.875 48.484375 
Q 21.1875 48.484375 17.84375 46.4375 
Q 14.5 44.390625 14.5 40.28125 
Q 14.5 37.15625 16.890625 35.375 
Q 19.28125 33.59375 26.515625 31.984375 
L 29.59375 31.296875 
Q 39.15625 29.25 43.1875 25.515625 
Q 47.21875 21.78125 47.21875 15.09375 
Q 47.21875 7.46875 41.1875 3.015625 
Q 35.15625 -1.421875 24.609375 -1.421875 
Q 20.21875 -1.421875 15.453125 -0.5625 
Q 10.6875 0.296875 5.421875 2 
L 5.421875 11.28125 
Q 10.40625 8.6875 15.234375 7.390625 
Q 20.0625 6.109375 24.8125 6.109375 
Q 31.15625 6.109375 34.5625 8.28125 
Q 37.984375 10.453125 37.984375 14.40625 
Q 37.984375 18.0625 35.515625 20.015625 
Q 33.0625 21.96875 24.703125 23.78125 
L 21.578125 24.515625 
Q 13.234375 26.265625 9.515625 29.90625 
Q 5.8125 33.546875 5.8125 39.890625 
Q 5.8125 47.609375 11.28125 51.796875 
Q 16.75 56 26.8125 56 
Q 31.78125 56 36.171875 55.265625 
Q 40.578125 54.546875 44.28125 53.078125 
" id="DejaVuSans-73"/>
     <path d="M 41.109375 46.296875 
Q 39.59375 47.171875 37.8125 47.578125 
Q 36.03125 48 33.890625 48 
Q 26.265625 48 22.1875 43.046875 
Q 18.109375 38.09375 18.109375 28.8125 
L 18.109375 0 
L 9.078125 0 
L 9.078125 54.6875 
L 18.109375 54.6875 
L 18.109375 46.1875 
Q 20.953125 51.171875 25.484375 53.578125 
Q 30.03125 56 36.53125 56 
Q 37.453125 56 38.578125 55.875 
Q 39.703125 55.765625 41.0625 55.515625 
z
" id="DejaVuSans-72"/>
    </defs>
    <g transform="translate(198.873 38.2)scale(0.144 -0.144)">
     <use xlink:href="#DejaVuSans-6c"/>
     <use x="27.783203125" xlink:href="#DejaVuSans-6f"/>
     <use x="88.96484375" xlink:href="#DejaVuSans-73"/>
     <use x="141.064453125" xlink:href="#DejaVuSans-73"/>
     <use x="193.1640625" xlink:href="#DejaVuSans-3a"/>
     <use x="226.85546875" xlink:href="#DejaVuSans-20"/>
     <use x="258.642578125" xlink:href="#DejaVuSans-6f"/>
     <use x="319.82421875" xlink:href="#DejaVuSans-76"/>
     <use x="379.00390625" xlink:href="#DejaVuSans-65"/>
     <use x="440.52734375" xlink:href="#DejaVuSans-72"/>
     <use x="481.640625" xlink:href="#DejaVuSans-20"/>
     <use x="513.427734375" xlink:href="#DejaVuSans-32"/>
     <use x="577.05078125" xlink:href="#DejaVuSans-36"/>
     <use x="640.673828125" xlink:href="#DejaVuSans-31"/>
     <use x="704.296875" xlink:href="#DejaVuSans-39"/>
     <use x="767.919921875" xlink:href="#DejaVuSans-30"/>
     <use x="831.54296875" xlink:href="#DejaVuSans-20"/>
     <use x="863.330078125" xlink:href="#DejaVuSans-69"/>
     <use x="891.11328125" xlink:href="#DejaVuSans-74"/>
     <use x="930.322265625" xlink:href="#DejaVuSans-65"/>
     <use x="991.845703125" xlink:href="#DejaVuSans-72"/>
     <use x="1032.95898438" xlink:href="#DejaVuSans-61"/>
     <use x="1094.23828125" xlink:href="#DejaVuSans-74"/>
     <use x="1133.44726562" xlink:href="#DejaVuSans-69"/>
     <use x="1161.23046875" xlink:href="#DejaVuSans-6f"/>
     <use x="1222.41210938" xlink:href="#DejaVuSans-6e"/>
     <use x="1285.79101562" xlink:href="#DejaVuSans-73"/>
    </g>
   </g>
  </g>
 </g>
 <defs>
  <clipPath id="p8b40e7682d">
   <rect height="345.6" width="446.4" x="72.0" y="43.2"/>
  </clipPath>
 </defs>
</svg>
